<?xml version="1.0" encoding="utf-8"?>

<!DOCTYPE svg PUBLIC "-//W3C//DTD SVG 1.1//EN" "http://www.w3.org/Graphics/SVG/1.1/DTD/svg11.dtd">
<svg version="1.1" id="Layer_1" xmlns="http://www.w3.org/2000/svg" xmlns:xlink="http://www.w3.org/1999/xlink" x="0px" y="0px"
	 viewBox="0 0 2560 1600" enable-background="new 0 0 2560 1600" xml:space="preserve">
<g>
	<path d="M170.6942,0.0001h356.8224c3.9499,17.4738,7.3456,35.0656,11.1304,52.5866c2.5468,11.661,5.7067,23.2041,7.4282,35.0302
		c1.3087,8.2535,4.0324,16.2004,5.4944,24.4304c2.8298,14.5615,7.0862,28.7693,11.0125,43.0479
		c3.3604,16.1769,8.454,31.9174,13.241,47.717c4.1621,16.8961,10.0457,33.3088,15.21,49.9219
		c9.35,27.5195,16.6249,55.7111,23.322,83.9735c4.4097,14.703,9.1732,29.2999,13.465,44.0383
		c3.3721,12.3684,8.678,24.1002,12.0855,36.4569c1.4857,5.3058,3.9971,10.2461,5.6831,15.5048
		c5.2587,17.2144,12.3214,33.8157,17.804,50.9713c4.6219,12.2506,11.7672,23.2867,18.0162,34.7237
		c6.1902,13.1466,11.1541,27.095,12.6868,41.6094c1.3206,9.7863,2.1695,19.6552,2.0162,29.5475
		c-0.2476,10.2226,0.3537,20.4805-0.6603,30.6794c-2.1105,27.3663-6.5792,54.4966-12.3685,81.3206
		c-5.7657,24.5364-14.2549,48.4127-25.2793,71.098c-4.4215,10.0103-10.6824,19.0067-16.6013,28.168
		c-4.2682,6.756-10.4937,12.2505-13.3942,19.8556c-4.5276,11.2719-10.6824,21.7892-15.21,33.0612
		c-4.4333,9.6802-7.7582,19.7966-11.2837,29.8187c-5.2704,16.6014-10.5763,33.3795-12.0737,50.8298
		c-0.507,10.0221-1.7214,20.0324-1.4149,30.0899c0.1533,7.4871-1.6979,14.8799-1.1555,22.3906
		c0.8607,15.2925-1.6271,30.4672-3.1481,45.6419c-1.1555,8.4186-1.4149,16.9432-2.7355,25.35
		c-1.5446,6.7915,3.5726,12.3685,6.3788,18.0516c10.8357,21.6477,21.5299,43.5078,28.7458,66.6882
		c1.4974,5.1172,4.4569,9.5977,7.3102,14.0546c8.3715,12.5924,17.2026,24.9609,24.0059,38.5084
		c5.2822,9.8688,8.3596,20.8458,14.7502,30.1133c3.2189,4.7399,6.1429,9.6567,8.7958,14.7268
		c7.2867,12.9343,7.6404,28.4274,6.5203,42.8591c-0.4716,2.653,1.8748,4.3979,3.4193,6.1902
		c5.7067,5.6948,11.0361,11.7789,17.1437,17.0729c9.5858,8.5247,20.6573,15.3634,29.3588,24.8784
		c5.4591,6.0015,8.4893,13.6301,12.1916,20.7399c5.3058,10.5763,10.647,21.6124,11.1304,33.6625
		c0.0826,6.7089,3.6434,12.5454,6.1194,18.5822c3.8909,8.6544,6.5793,17.8748,7.8409,27.2955
		c1.2852,10.1991-0.7192,21.0701-6.9801,29.3942c-6.5792,8.9609-16.731,16.1416-28.1326,16.5897
		c-3.3957,0.1061-6.9447,1.0258-10.2343-0.2241c-15.9175-6.8151-29.7833-17.3323-44.4156-26.4347
		c-5.6713-3.6787-10.9064-7.9587-16.4716-11.7673c-6.4377-4.0322-14.2196-4.6454-21.2822-7.0626
		c-12.0973-4.1974-24.5601-8.1002-35.1364-15.54c-8.5129-5.4237-15.4222-12.8519-23.0508-19.384
		c-7.0626-6.8503-15.7288-11.6492-23.1334-18.0869c-16.2594-11.944-32.7074-23.7111-48-36.9166
		c-17.3087-15.3044-33.2262-32.1769-51.5962-46.2668c-6.1194-4.2092-12.8047-7.5225-18.8416-11.8496
		c-3.8791-2.8062-6.6736-6.7324-9.8924-10.1873c-3.549-4.2446-9.2557-5.4591-13.4768-8.843
		c-10.14-6.8268-13.972-19.0302-21.2705-28.2977c-5.1172-6.1077-6.65-14.2078-11.1658-20.6691
		c-3.4193-4.9993-6.0015-10.4938-9.1614-15.6464c-3.9263-6.5084-9.9985-11.3308-14.1842-17.6389
		c-10.2108-14.6676-18.8769-30.3729-26.7414-46.3965c-5.7538-12.9226-12.6868-25.291-18.0869-38.3787
		c-2.983-7.4399-6.5792-14.5968-9.8688-21.8837c-6.2255-12.9462-14.1725-24.9608-22.3552-36.7162
		c-6.084-9.8099-12.5453-19.4666-20.3744-27.9676c-1.8865-2.0752-3.5844-4.3154-5.2115-6.5792
		c-7.0273-10.0929-16.3419-18.2402-24.1592-27.6846c-6.3906-7.8998-13.0877-15.7996-17.2262-25.185
		c-5.3766-11.4959-7.4753-24.2064-8.8548-36.7045c1.2144-14.4791,4.3508-28.9698,10.3876-42.2579
		c10.3169-23.2042,20.1385-46.6912,27.8968-70.8975c2.8769-9.1614,5.4591-18.4525,9.5976-27.1541
		c4.4687-12.2505,9.0671-24.4775,12.4982-37.0582c2.8062-9.9985,6.4613-19.7377,8.9609-29.8187
		c4.1857-16.2831,9.6802-32.2358,12.5571-48.8253c4.9757-17.7568,8.2653-35.9499,13.7126-53.577
		c6.7914-21.9779,10.871-44.6632,15.5873-67.1481c1.3324-4.28,3.1599-8.4539,3.608-12.9698
		c0.5778-6.4849,4.3154-12.1326,4.8813-18.6293c3.3604-14.9624,6.1901-30.196,5.8246-45.6065
		c-0.1533-5.6242,0.3065-11.2248,1.014-16.8018c0.7782-5.7892-3.2896-10.9771-2.594-16.7664
		c1.2262-8.3714-2.4407-16.2948-4.056-24.336c-0.2948-2.4996-1.804-4.4805-3.7376-5.9661
		c1.0258-9.6212-2.9595-18.6293-4.9875-27.8261c-1.2262-4.9521-4.5158-9.0435-6.0486-13.8895
		c-3.1481-9.1732-10.3522-16.4009-12.8519-25.857c-1.2026-4.8106-3.3722-9.2793-5.1997-13.8541
		c-2.0752-4.8578-2.2874-10.3522-5.0346-14.9506c-3.5136-5.2233-2.5468-11.8379-4.7163-17.5446
		c-3.1245-8.5365-5.1997-17.3913-8.2063-25.9631c-2.476-10.6116-5.6713-21.0936-10.2226-31.0096
		c-2.6647-9.6802-4.6927-19.6551-9.067-28.7458c-2.5586-9.975-6.4613-19.5136-9.9749-29.182
		c-11.3545-29.5711-22.9801-59.0715-35.6551-88.112c-4.1739-7.8055-6.9211-16.2594-11.4016-23.9234
		C192.4601,47.1511,169.3619,0.849,170.6942,0.0001z"/>
	<path d="M2032.4833,0.0001h356.8698c0,0-3.0774,1.2616-3.6199,4.5866c0.165,2.2874-9.7341,21.5782-11.272,22.4024
		c0,0-3.6196,9.2203-5.1997,13.9013c-3.6904,10.7531-10.6116,20.0088-14.467,30.6794c-2.6294,6.0133-6.0017,11.6964-8.0649,17.9455
		c-9.6331,21.8364-18.2874,44.0855-26.9065,66.3228c-5.3057,13.748-10.9182,27.437-14.8208,41.6566
		c-4.3862,9.1024-6.4023,19.0774-9.0671,28.7576c-4.2446,9.3854-7.5105,19.2307-9.739,29.2881
		c-1.3206,5.0582-3.3958,9.8806-4.6338,14.9624c-1.7214,7.2631-5.3059,14.0309-5.9189,21.5534
		c-0.1768,5.9779-4.7517,10.4584-5.6831,16.2476c-1.3796,7.4517-5.6125,13.9366-7.4048,21.2704
		c-1.8511,6.7915-6.0366,12.5689-9.5032,18.5939c-2.7944,4.5984-3.938,9.9632-6.6853,14.5851
		c-3.042,5.0346-3.8909,10.9182-5.4946,16.4716c-1.6624,5.8128-2.6411,11.8615-2.2166,17.9101
		c-1.8982,1.5328-3.4783,3.4547-3.7258,5.9779c-1.6272,8.0413-5.2939,15.9646-4.0562,24.336
		c0.6841,5.7892-3.3838,10.9772-2.5938,16.7782c0.5542,4.787,1.073,9.5977,1.0256,14.4318
		c-0.3418,14.2078,1.3325,28.451,4.6809,42.2579c1.2263,5.0936,1.533,10.4465,3.6433,15.3043
		c1.415,3.1718,2.0281,6.6028,2.5232,10.0222c0.7312,5.9189,3.9265,11.2012,4.5396,17.1672
		c2.8064,13.524,5.3293,27.1187,8.7488,40.5129c2.877,13.8776,7.9705,27.1776,11.095,40.9963
		c2.5232,11.4134,5.3884,22.7325,8.3713,34.028c3.3369,18.4879,9.48,36.2919,14.0901,54.4849
		c7.2512,23.0391,13.4177,46.5026,23.1099,68.6809c3.325,8.7134,5.5652,17.804,8.7134,26.5881
		c4.3623,13.9955,10.2932,27.4252,15.6108,41.0671c5.2939,13.465,12.5688,26.2343,16.1768,40.3361
		c1.8159,8.5483,4.1033,17.1555,4.1741,25.9631c-1.7454,13.2175-3.9854,26.7061-10.3052,38.6382
		c-9.2205,17.1909-23.8999,30.3965-36.3745,45.1111c-7.4163,10.5527-16.7781,19.5963-23.605,30.5969
		c-5.7185,9.5387-12.5923,18.311-18.2048,27.9204c-12.9697,20.4452-20.3271,43.7435-31.6462,65.073
		c-9.1968,19.938-19.3367,39.5343-31.7524,57.6919c-2.9712,4.3979-6.5085,8.3832-10.1045,12.2742
		c-6.0723,6.5438-9.1851,15.0922-14.208,22.3669c-4.4097,6.2137-5.8716,14.0192-10.6704,19.9735
		c-4.4805,5.9189-7.9941,12.4509-11.9558,18.7001c-4.0088,6.5203-10.3052,11.3073-17.1201,14.5969
		c-6.4023,2.7472-9.468,9.4915-14.7266,13.6771c-7.8174,6.1312-17.2734,9.8925-24.7488,16.5071
		c-19.8203,15.8467-36.7517,34.9595-56.6898,50.6528c-15.092,12.5453-31.5283,23.322-46.8445,35.5845
		c-14.7384,9.3381-25.5505,23.605-40.4893,32.6602c-9.9985,6.3435-21.3766,9.8806-32.4717,13.7126
		c-7.5343,2.5823-15.9763,3.1364-22.5557,8.006c-5.9189,4.2917-11.7081,8.7958-17.9219,12.6632
		c-10.7531,6.5438-20.7751,14.2786-32.0708,19.9146c-4.8105,2.2637-9.5504,6.0367-15.1628,5.2231
		c-5.0699-0.4126-10.3169-0.507-15.0214-2.6176c-10.7413-4.7399-19.6667-14.0073-23.1805-25.291
		c-3.1244-9.7981-1.7568-20.3507,0.8843-30.0898c2.0518-8.5955,5.978-16.5306,9.4326-24.6073
		c2.8534-5.9661,1.8276-12.7693,3.5137-19.0184c2.8063-11.6846,8.9255-22.1429,14.1252-32.8606
		c2.9241-6.1429,6.9211-11.7789,12.0148-16.3184c10.8593-10.0103,23.605-17.8512,33.6625-28.7694
		c3.8909-4.4333,8.619-8.171,11.9794-13.0405c0.0236-8.4069-1.0966-16.8843,0.507-25.2556
		c0.9669-13.1586,8.4658-24.4305,15.4224-35.1836c4.4686-6.5674,7.1687-14.0898,10.4111-21.2939
		c5.5887-12.6986,12.958-24.5247,20.7516-35.9735c5.3767-8.5247,12.1682-16.4598,14.9742-26.3286
		c7.0392-22.3317,17.4149-43.3899,27.8026-64.3065c2.4641-5.0818,6.4849-9.751,7.0626-15.5166
		c-1.4974-12.7457-2.5469-25.5387-4.0796-38.2844c-1.238-11.944-3.0067-23.9351-2.1106-35.9617
		c0.507-7.9116-1.6625-15.6816-1.12-23.5932c-0.2124-22.2491-2.0164-44.7929-9.3147-65.9573
		c-6.3671-22.2491-14.7031-43.9557-25.2676-64.566c-3.7966-7.2513-5.86-15.4812-11.2012-21.8482
		c-7.4517-8.9256-13.3943-18.9713-19.4666-28.8519c-16.0944-30.8209-27.6846-64.059-33.5563-98.3699
		c-3.7023-16.9197-5.7185-34.1342-7.77-51.3132c-1.4386-12.2741-1.8867-24.619-1.6626-36.9639
		c-0.4952-14.644,0.7546-29.2763,3.1953-43.7082c1.5092-8.7015,4.6808-16.9904,7.8054-25.2203
		c4.3627-11.4724,11.944-21.3058,17.0259-32.4481c4.8695-8.8195,7.0272-18.7354,10.7767-28.0265
		c3.6315-10.5173,7.8997-20.8106,11.0597-31.493c1.745-5.9071,4.5864-11.4134,6.2844-17.3324
		c3.3131-12.0619,8.4774-23.5107,11.826-35.549c4.4803-15.6699,9.7037-31.1039,14.1959-46.762
		c4.6929-20.787,10.3759-41.3264,16.2358-61.8069c7.7819-24.5365,16.3538-48.8489,22.8622-73.7627
		c4.3744-14.3375,8.9609-28.6396,11.9795-43.3309c3.5844-13.3825,7.6757-26.647,10.4701-40.2299
		c2.2874-12.2034,6.0957-24.0884,7.6285-36.4451C2021.4944,52.9757,2026.6942,26.4231,2032.4833,0.0001z"/>
</g>
<path fill="none" stroke="#000000" stroke-width="22.3781" stroke-linejoin="round" stroke-miterlimit="10" d="M585.6022,952.2161
	h150.4529l26.7632-96.9263l62.9298,418.0853l54.2498-666.1877l37.6132,409.4053l38.3365-62.9297l274.8658-0.0001
	c-77.0347-65.0997-202.6837-142.1345-192.406-235.8059c13.5679-123.6575,203.6177-145.3895,254.6124-47.7399
	c79.2048-103.0746,244.92-79.2967,250.2726,61.4832c3.2057,84.318-134.3074,167.3845-190.2361,222.0626l269.8025,0.7233
	l35.4432,64.3765l39.7831-400.7254l52.8033,648.8279l62.9297-407.9586l26.0399,92.5863h134.5396"/>
</svg>
