<?xml version="1.0" encoding="UTF-8" standalone="no"?>
<!-- Created with Inkscape (http://www.inkscape.org/) -->

<svg
   xmlns:dc="http://purl.org/dc/elements/1.1/"
   xmlns:cc="http://creativecommons.org/ns#"
   xmlns:rdf="http://www.w3.org/1999/02/22-rdf-syntax-ns#"
   xmlns:svg="http://www.w3.org/2000/svg"
   xmlns="http://www.w3.org/2000/svg"
   xmlns:sodipodi="http://sodipodi.sourceforge.net/DTD/sodipodi-0.dtd"
   xmlns:inkscape="http://www.inkscape.org/namespaces/inkscape"
   width="275.94077mm"
   height="183.46733mm"
   viewBox="0 0 977.74287 650.08109"
   id="svg29483"
   version="1.1"
   inkscape:version="0.91 r13725"
   sodipodi:docname="checkpulse.svg">
  <defs
     id="defs29485" />
  <sodipodi:namedview
     id="base"
     pagecolor="#ffffff"
     bordercolor="#666666"
     borderopacity="1.0"
     inkscape:pageopacity="0.0"
     inkscape:pageshadow="2"
     inkscape:zoom="0.50141301"
     inkscape:cx="860.33663"
     inkscape:cy="588.57731"
     inkscape:document-units="px"
     inkscape:current-layer="layer1"
     showgrid="false"
     fit-margin-top="0"
     fit-margin-left="0"
     fit-margin-right="0"
     fit-margin-bottom="0"
     inkscape:window-width="1916"
     inkscape:window-height="1035"
     inkscape:window-x="4"
     inkscape:window-y="1"
     inkscape:window-maximized="1" />
  <metadata
     id="metadata29488">
    <rdf:RDF>
      <cc:Work
         rdf:about="">
        <dc:format>image/svg+xml</dc:format>
        <dc:type
           rdf:resource="http://purl.org/dc/dcmitype/StillImage" />
        <dc:title></dc:title>
      </cc:Work>
    </rdf:RDF>
  </metadata>
  <g
     inkscape:label="Layer 1"
     inkscape:groupmode="layer"
     id="layer1"
     transform="translate(546.52049,-585.40455)">
    <g
       id="g30075">
      <path
         sodipodi:nodetypes="ccssccssssscsscscssscsssscccsccccccccssscsscscsccscssscsscccssccccccsscccscssscsscscsscscsscccsscscccscccscccsssscscsscccscsssssscsscsccccccssccscscsscsccccscssscccsc"
         inkscape:connector-curvature="0"
         id="path30046"
         d="m -233.93577,1181.7881 c -0.13443,-36.2651 -2.98687,-72.3949 -6.33425,-80.2895 -3.71402,-8.7584 -18.22853,-20.2782 -37.23739,-29.5545 -49.05712,-23.94 -86.32934,-80.9935 -99.92115,-152.95236 -4.56828,-24.18589 29.82156,-74.80511 55.26733,-81.3485 15.47326,-3.97876 20.10754,-8.98479 25.30094,-27.33077 3.49709,-12.35265 5.25878,-23.4457 3.91445,-24.65105 -1.34372,-1.2048 -33.51359,2.95585 -71.4873,9.24613 -96.40268,15.96924 -145.42619,20.17481 -145.42619,12.47537 0,-3.76343 11.85639,-6.18674 30.27497,-6.18674 16.65078,0 66.9618,-6.35656 111.8026,-14.12669 l 81.52764,-14.12671 26.56522,-46.3172 c 26.09533,-45.49703 53.32966,-73.3587 71.70852,-73.3587 5.11579,0 16.89641,6.78011 26.18025,15.06688 9.28323,8.28679 23.238,18.95084 31.00947,23.69718 11.54842,7.05294 14.62939,14.81265 16.85976,42.46119 2.66727,33.05727 3.1323,33.83088 20.326905,33.83088 18.720444,0 42.039711,16.60807 42.039711,29.94144 0,4.41378 6.186986,10.95881 13.748861,14.54418 7.561863,3.58537 24.212025,15.84542 37.00029012,27.24475 25.27772388,22.53128 67.66146188,43.32575 88.30795888,43.32575 7.142682,0 14.686214,2.46549 16.763214,5.47887 2.07699,3.01337 16.67583,5.60871 32.44118,5.76759 15.76596,0.15889 48.68376,3.50045 73.15122,7.42661 24.46807,3.92615 51.64741,5.91114 60.39901,4.41157 20.00611,-3.42921 97.03268,-68.61837 91.15488,-77.14622 -5.99633,-8.69879 -34.29758,-7.73835 -45.84966,1.556 -5.30584,4.26913 -24.42958,12.77945 -42.49679,18.91194 l -32.84998,11.15003 -38.98807,-11.47548 -38.98747,-11.47548 21.4256,-34.35138 c 27.11762,-43.47861 27.07729,-53.1992 -0.28109,-68.3614 -11.94011,-6.61629 -20.27497,-13.31474 -18.52306,-14.88608 1.75252,-1.57079 10.83409,1.53791 20.18087,6.90885 9.86617,5.66898 0.33608,-6.35987 -22.72349,-28.67582 -21.8454,-21.14238 -49.3431,-48.769 -61.10601,-61.39176 -33.175061,-35.60001 -93.7433341,-48.36356 -147.621725,-31.10789 -27.373656,8.76673 -125.421295,6.8031 -244.720395,-4.90194 -92.6972,-9.09491 -197.2068,-10.52654 -232.46679,-3.18487 -12.60312,2.62383 -22.91476,2.67699 -22.91476,0.11512 0,-15.78679 138.65442,-17.13241 284.87803,-2.76519 94.39962,9.27572 148.33911,9.24504 249.269131,-0.14245 40.244414,-3.74261 90.70331,4.00395 147.184819,22.59702 20.16498,6.6382 54.53711,13.81168 76.3825,15.94186 69.55209,6.78118 96.04214,26.22951 67.39198,49.47742 -17.18423,13.94371 -54.44606,18.65223 -87.69934,11.08154 l -28.33607,-6.45081 25.61625,25.15017 c 14.08921,13.83249 27.80445,25.97803 30.47845,26.98998 2.67461,1.01249 19.27772,-9.84223 36.89703,-24.12124 55.10478,-44.65876 132.85913,-69.87962 132.85913,-43.09564 0,4.31679 5.58569,7.84901 12.41307,7.84901 12.83348,0 16.58845,4.90358 19.98472,26.09912 1.09318,6.82063 5.11152,15.20274 8.93003,18.62648 8.92331,8.00079 -23.40482,42.80745 -63.49403,68.36306 l -28.39779,18.10271 15.52275,5.29149 c 8.53712,2.91038 17.15613,7.66165 19.15246,10.55833 1.99695,2.89667 -15.80629,22.69399 -39.56247,43.99417 -45.29117,40.60877 -67.63274,49.78971 -101.85638,41.85741 -9.26429,-2.14717 -40.21753,-5.91059 -68.78459,-8.36348 C 86.73389,898.70028 55.575326,889.78397 17.511173,863.75281 4.6630203,854.9658 -2.7179738,852.53757 -2.7888558,857.07351 c -0.3299725,20.9868 -19.3528832,124.29338 -27.3131582,148.32869 -6.280476,18.9607 -9.37611,53.4523 -9.668193,107.7117 -0.238311,43.9005 -3.000917,84.7498 -6.144211,90.7766 -9.675521,18.553 -2.008556,-176.717 8.174762,-208.19687 11.866174,-36.68204 22.841419,-100.90636 22.841419,-133.66284 0,-27.14612 -6.15581,-36.21254 -26.956907,-39.70148 -6.77422,-1.13631 -14.530404,-9.55349 -18.465625,-20.03949 -8.321423,-22.17461 -19.905897,-29.39957 -40.834091,-25.46686 -15.75496,2.96023 -16.04522,2.44961 -20.21998,-35.53863 -3.37427,-30.70356 -6.92453,-40.2302 -17.45554,-46.84429 -19.55209,-12.27868 -28.83286,-10.21643 -28.83286,6.40534 0,19.30313 -18.60251,78.43321 -24.67584,78.43321 -2.60311,0 -1.68225,-8.91246 2.04645,-19.80609 5.92055,-17.29731 5.31317,-20.76653 -4.7956,-27.39431 -6.36603,-4.17325 -17.92362,-7.58823 -25.68286,-7.58823 -7.75985,0 -14.10877,-2.73285 -14.10877,-6.07277 0,-7.97667 30.20776,-1.29958 43.80079,9.68116 9.36021,7.56247 10.53467,5.77362 14.39474,-21.92751 2.31164,-16.5889 2.37519,-32.81401 0.14055,-36.05529 -6.71739,-9.74472 -24.83288,-6.67601 -38.69538,6.55435 -16.15521,15.41861 -68.52611,105.81219 -68.52611,118.27825 0,26.99216 -40.80232,99.55532 -67.50809,120.05722 -14.3654,11.02896 -15.00274,24.9315 -2.58783,56.48044 16.9288,43.02069 45.10418,75.88549 80.34706,93.71879 18.04093,9.1293 35.93889,21.8545 39.77329,28.2785 9.4702,15.8663 13.87168,111.3174 6.22792,135.0622 -5.02353,15.6049 -6.21936,6.8979 -6.42101,-46.7599 z m -87.15,-314.97211 c 11.40667,-18.19641 12.08249,-21.78889 4.10144,-21.78889 -11.80752,0 -33.99939,19.23135 -33.99939,29.46313 0,4.15133 -4.12465,10.61694 -9.16589,14.36777 -5.04125,3.75138 -9.16591,11.91104 -9.16591,18.13285 0,10.59612 1.09319,10.37257 17.28628,-3.53716 9.50688,-8.1668 23.43171,-24.6538 30.94347,-36.6377 z m 601.3595,-34.33495 C 393.8484,778.39809 453.54592,719.01325 394.34092,719.01325 c -12.11732,0 -17.40361,-2.14827 -14.75222,-5.99443 2.27253,-3.29718 10.82921,-4.84715 19.01436,-3.44401 12.36359,2.11922 14.56951,0.58349 13.03269,-9.07245 -1.58204,-9.94195 -5.75741,-11.54397 -28.87503,-11.0799 l -27.02536,0.54241 13.95356,-10.13097 13.95356,-10.13042 -16.15705,0 c -23.3486,0 -69.57835,22.59318 -105.52701,51.57253 -17.14635,13.82208 -35.49709,25.13155 -40.77909,25.13155 -6.22854,0 -8.30675,3.032 -5.91262,8.62592 5.05897,11.82064 28.70149,6.16755 61.6138,-14.73156 14.28353,-9.06971 25.97005,-14.1289 25.97005,-11.24263 0,9.35898 -59.94499,40.16828 -74.53344,38.30711 -11.74396,-1.49792 -16.69111,3.37279 -30.9783,30.49864 -9.35106,17.75425 -16.12099,33.07097 -15.0443,34.03634 4.42713,3.96943 44.75709,18.19147 52.1497,18.3898 4.3868,0.12059 25.01008,-7.89669 45.82951,-17.81068 z m -26.72961,-36.84535 c 14.89154,-6.1977 30.85853,-16.11114 35.48242,-22.02996 4.62329,-5.91882 12.38314,-10.76158 17.24351,-10.76158 16.70393,0 -38.30124,38.31479 -59.14878,41.20105 -19.86251,2.74984 -19.61686,2.42769 6.42285,-8.40951 z m 18.81515,-117.76377 c 6.68806,-5.42682 12.15948,-11.74614 12.15948,-14.04288 0,-6.9861 -49.76106,-20.55834 -88.12097,-24.03523 -19.89917,-1.80363 -48.43384,-8.13884 -63.41031,-14.07903 -14.97647,-5.93964 -29.62541,-10.79993 -32.55422,-10.79993 -2.928204,0 6.62939,14.02589 21.23983,31.1687 21.31744,25.01266 31.87534,32.50226 53.45798,37.9225 36.22975,9.09765 82.01648,6.2092 97.22821,-6.13413 z m -95.72256,-11.14401 c -1.99022,-4.64992 -2.25297,-9.67896 -0.58661,-11.17469 1.6688,-1.49628 4.50045,2.30824 6.2933,8.45444 3.80752,13.05558 -0.42163,15.07179 -5.70913,2.72025 z M -53.600947,846.85429 c -2.240755,-2.00855 -4.073929,-6.19988 -4.073929,-9.31406 0,-3.43306 2.846314,-3.10926 7.230663,0.82183 3.977394,3.56619 5.810581,7.75752 4.073941,9.31407 -1.736627,1.55708 -4.990522,1.18727 -7.230675,-0.82184 z m -91.831933,-31.95985 c -1.94562,-4.54582 -11.11274,-8.2561 -20.51329,-8.30212 -13.21907,-0.0657 -14.95875,-1.26452 -7.83012,-5.39504 15.56858,-9.02094 28.28535,-6.08153 35.55147,8.2183 3.82829,7.53344 4.56401,13.69716 1.63458,13.69716 -2.9288,0 -6.90803,-3.69824 -8.84264,-8.2183 z m -79.06812,-4.61539 c -2.24564,-5.24711 -13.06202,-13.0386 -24.03666,-17.31485 -19.17323,-7.47098 -19.33333,-7.78328 -4.09594,-7.98929 17.37428,-0.23558 38.84082,17.02174 34.77605,27.9559 -1.70548,4.588 -3.92424,3.70262 -6.64345,-2.65176 z M 85.840519,754.16782 C 53.613823,691.9115 45.97435,682.98041 12.597029,668.53977 l -24.442406,-10.57475 21.3871037,3.03254 c 29.7182953,4.21379 56.7534263,33.54215 85.9419323,93.23108 13.154901,26.90176 22.656271,50.04338 21.114571,51.4257 -1.54232,1.38287 -15.38283,-21.78616 -30.757711,-51.48652 z m -226.358649,-4.57211 c -6.51879,-4.27351 -10.23525,-9.21929 -8.2597,-10.99115 1.97617,-1.77132 8.58479,1.72529 14.68684,7.77067 12.98136,12.86109 10.3153,14.19738 -6.42714,3.22048 z"
         style="fill:#000000" />
      <path
         inkscape:connector-curvature="0"
         id="path30067"
         d="m 391.05953,713.13024 -34.22756,10.21536 -77.49634,62.5691"
         style="fill:none;fill-rule:evenodd;stroke:#000000;stroke-width:10.09041405;stroke-linecap:round;stroke-linejoin:round;stroke-miterlimit:4;stroke-dasharray:none;stroke-opacity:1" />
      <path
         inkscape:connector-curvature="0"
         id="path30069"
         d="m 272.57294,747.43299 80.83507,-51.23339 14.63393,-9.87631"
         style="fill:none;fill-rule:evenodd;stroke:#000000;stroke-width:10.30624676;stroke-linecap:round;stroke-linejoin:round;stroke-miterlimit:4;stroke-dasharray:none;stroke-opacity:1" />
      <path
         inkscape:connector-curvature="0"
         id="path30071"
         d="m -113.74352,774.7876 0,33.90419 -3.98873,19.94364"
         style="fill:none;fill-rule:evenodd;stroke:#000000;stroke-width:6.1;stroke-linecap:round;stroke-linejoin:round;stroke-opacity:1;stroke-miterlimit:4;stroke-dasharray:none" />
      <path
         inkscape:connector-curvature="0"
         id="path30073"
         d="m -53.91261,810.68615 -7.97745,43.87601 0,15.95491"
         style="fill:none;fill-rule:evenodd;stroke:#000000;stroke-width:6.1;stroke-linecap:round;stroke-linejoin:round;stroke-opacity:1;stroke-miterlimit:4;stroke-dasharray:none" />
    </g>
  </g>
</svg>
